<svg xmlns="http://www.w3.org/2000/svg" width="64" height="64" viewBox="0 0 64 64" fill="none"><g clip-path="url(#clip0_1288_15063)"><path d="M17.1458 9.94995H46.8542C51.3583 9.94995 55 13.5916 55 18.0958V46.6541C55 51.1583 51.3583 54.8 46.8542 54.8H17.1458C12.6417 54.8 9 51.1583 9 46.6541V18.0958C9 13.5916 12.6417 9.94995 17.1458 9.94995Z" fill="#001E36"></path><path d="M19.3501 41.4025V21.68C19.3501 21.5458 19.4076 21.4691 19.5418 21.4691C19.8676 21.4691 20.1743 21.4691 20.6151 21.45C21.0751 21.4308 21.5543 21.4308 22.0718 21.4116C22.5893 21.3925 23.1451 21.3925 23.7393 21.3733C24.3334 21.3541 24.9084 21.3541 25.4834 21.3541C27.0551 21.3541 28.3584 21.5458 29.4318 21.9483C30.3901 22.2741 31.2718 22.8108 32.0001 23.52C32.6134 24.1333 33.0926 24.8808 33.3993 25.705C33.6868 26.51 33.8401 27.3341 33.8401 28.1966C33.8401 29.845 33.4568 31.2058 32.6901 32.2791C31.9234 33.3525 30.8501 34.1575 29.6043 34.6175C28.3009 35.0966 26.8634 35.2691 25.2918 35.2691C24.8318 35.2691 24.5251 35.2691 24.3334 35.25C24.1418 35.2308 23.8734 35.2308 23.5093 35.2308V41.3833C23.5284 41.5175 23.4326 41.6325 23.2984 41.6516C23.2793 41.6516 23.2601 41.6516 23.2218 41.6516H19.5801C19.4268 41.6516 19.3501 41.575 19.3501 41.4025ZM23.5284 25.1683V31.6083C23.7968 31.6275 24.0459 31.6466 24.2759 31.6466H25.2918C26.0393 31.6466 26.7868 31.5316 27.4959 31.3016C28.1093 31.1291 28.6459 30.765 29.0676 30.2858C29.4701 29.8066 29.6618 29.155 29.6618 28.3116C29.6809 27.7175 29.5276 27.1233 29.2209 26.6058C28.8951 26.1075 28.4351 25.7241 27.8793 25.5133C27.1701 25.2258 26.4034 25.1108 25.6176 25.13C25.1193 25.13 24.6784 25.13 24.3143 25.1491C23.9309 25.13 23.6626 25.1491 23.5284 25.1683Z" fill="#31A8FF"></path><path d="M45.8003 30.4391C45.2253 30.1324 44.6119 29.9216 43.9603 29.7874C43.2511 29.6341 42.5419 29.5383 41.8136 29.5383C41.4303 29.5191 41.0278 29.5766 40.6636 29.6724C40.4144 29.7299 40.2036 29.8641 40.0694 30.0558C39.9736 30.2091 39.9161 30.4008 39.9161 30.5733C39.9161 30.7458 39.9928 30.9183 40.1078 31.0716C40.2803 31.2824 40.5103 31.4549 40.7594 31.5891C41.2003 31.8191 41.6603 32.0299 42.1203 32.2216C43.1553 32.5666 44.1519 33.0458 45.0719 33.6208C45.7044 34.0233 46.2219 34.5599 46.5861 35.2116C46.8928 35.8249 47.0461 36.4958 47.0269 37.1858C47.0461 38.0866 46.7778 38.9874 46.2794 39.7349C45.7428 40.5016 44.9953 41.0958 44.1328 41.4408C43.1936 41.8433 42.0436 42.0541 40.6636 42.0541C39.7819 42.0541 38.9194 41.9774 38.0569 41.8049C37.3861 41.6899 36.7153 41.4791 36.1019 41.1916C35.9678 41.1149 35.8719 40.9808 35.8911 40.8274V37.4924C35.8911 37.4349 35.9103 37.3583 35.9678 37.3199C36.0253 37.2816 36.0828 37.3008 36.1403 37.3391C36.8878 37.7799 37.6736 38.0866 38.5169 38.2783C39.2453 38.4699 40.0119 38.5658 40.7786 38.5658C41.5069 38.5658 42.0244 38.4699 42.3694 38.2974C42.6761 38.1633 42.8869 37.8374 42.8869 37.4924C42.8869 37.2241 42.7336 36.9749 42.4269 36.7258C42.1203 36.4766 41.4878 36.1891 40.5486 35.8249C39.5711 35.4799 38.6703 35.0199 37.8269 34.4449C37.2328 34.0233 36.7344 33.4674 36.3703 32.8158C36.0636 32.2024 35.9103 31.5316 35.9294 30.8608C35.9294 30.0366 36.1594 29.2508 36.5811 28.5416C37.0603 27.7749 37.7694 27.1616 38.5936 26.7783C39.4944 26.3183 40.6253 26.1074 41.9861 26.1074C42.7719 26.1074 43.5769 26.1649 44.3628 26.2799C44.9378 26.3566 45.4936 26.5099 46.0111 26.7208C46.0878 26.7399 46.1644 26.8166 46.2028 26.8933C46.2219 26.9699 46.2411 27.0466 46.2411 27.1233V30.2474C46.2411 30.3241 46.2028 30.4008 46.1453 30.4391C45.9728 30.4774 45.8769 30.4774 45.8003 30.4391Z" fill="#31A8FF"></path></g><defs><clipPath id="clip0_1288_15063"><rect width="64" height="64" fill="white"></rect></clipPath></defs></svg>