<svg xmlns="http://www.w3.org/2000/svg" width="64" height="64" viewBox="0 0 64 64" fill="none"><g clip-path="url(#clip0_1288_15068)"><g clip-path="url(#clip1_1288_15068)"><path d="M18.9651 9H45.0349C50.5349 9 55 13.4652 55 18.9651V45.0349C55 50.5349 50.5349 55 45.0349 55H18.9651C13.4652 55 9 50.5349 9 45.0349V18.9651C9 13.4652 13.4652 9 18.9651 9Z" fill="#FFD02F"></path><path d="M40.9647 14.7449H35.9141L40.1208 22.137L30.8635 14.7449H25.8129L30.4415 23.7842L20.7623 14.7449H15.7117L20.7623 26.2483L15.7117 49.2551H20.7623L30.4415 24.601L25.8129 49.2551H30.8635L40.1208 22.9674L35.9141 49.2551H40.9647L50.222 20.4898L40.9647 14.7449Z" fill="#050038"></path></g></g><defs><clipPath id="clip0_1288_15068"><rect width="64" height="64" fill="white"></rect></clipPath><clipPath id="clip1_1288_15068"><rect width="46" height="46" fill="white" transform="translate(9 9)"></rect></clipPath></defs></svg>