<svg xmlns="http://www.w3.org/2000/svg" width="64" height="64" viewBox="0 0 64 64" fill="none"><g clip-path="url(#clip0_1288_15061)"><path d="M17.1458 9.94995H46.8542C51.3583 9.94995 55 13.5916 55 18.0958V46.6541C55 51.1583 51.3583 54.8 46.8542 54.8H17.1458C12.6417 54.8 9 51.1583 9 46.6541V18.0958C9 13.5916 12.6417 9.94995 17.1458 9.94995Z" fill="#470137"></path><path d="M33.1884 21.7375L27.4384 31.225L33.5718 41.2875C33.6101 41.3641 33.6293 41.4408 33.6101 41.5175C33.5909 41.5941 33.5143 41.5366 33.3993 41.5558H29.0101C28.7034 41.5558 28.4926 41.5366 28.3584 41.345C27.9559 40.54 27.5343 39.7541 27.1318 38.9491C26.7293 38.1633 26.2884 37.3583 25.8284 36.5341C25.3684 35.71 24.9084 34.8858 24.4484 34.0425H24.4101C24.0076 34.8666 23.5668 35.6908 23.1259 36.515C22.6851 37.3391 22.2443 38.1633 21.8226 38.9683C21.3818 39.7733 20.9409 40.5975 20.5001 41.3833C20.4234 41.575 20.2701 41.5941 20.0593 41.5941H15.8426C15.7659 41.5941 15.7084 41.6325 15.7084 41.5366C15.6893 41.46 15.7084 41.3833 15.7468 41.3258L21.7076 31.5508L15.9001 21.7183C15.8426 21.6416 15.8234 21.565 15.8618 21.5266C15.9001 21.4691 15.9768 21.45 16.0534 21.45H20.4043C20.5001 21.45 20.5959 21.4691 20.6726 21.4883C20.7493 21.5266 20.8068 21.5841 20.8643 21.6608C21.2284 22.485 21.6501 23.3091 22.0909 24.1333C22.5509 24.9575 22.9918 25.7625 23.4709 26.5675C23.9309 27.3725 24.3526 28.1775 24.7551 29.0016H24.7934C25.1959 28.1583 25.6176 27.3341 26.0393 26.5291C26.4609 25.7241 26.9018 24.9191 27.3426 24.1141C27.7834 23.3091 28.2051 22.485 28.6268 21.6991C28.6459 21.6225 28.6843 21.5458 28.7418 21.5075C28.8184 21.4691 28.8951 21.45 28.9909 21.4691H33.0351C33.1309 21.45 33.2268 21.5075 33.2459 21.6033C33.2651 21.6225 33.2268 21.6991 33.1884 21.7375Z" fill="#FF61F6"></path><path d="M42.0435 41.9582C40.6252 41.9774 39.2069 41.6899 37.9227 41.0957C36.7152 40.5399 35.7185 39.6199 35.0285 38.4891C34.3194 37.3199 33.9744 35.8632 33.9744 34.1191C33.9552 32.7007 34.3194 31.3016 35.0285 30.0749C35.7569 28.8291 36.811 27.7941 38.076 27.1041C39.4177 26.3566 41.0277 25.9924 42.9252 25.9924C43.021 25.9924 43.1552 25.9924 43.3277 26.0116C43.5002 26.0307 43.6919 26.0307 43.9219 26.0499V19.9932C43.9219 19.8591 43.9794 19.7824 44.1135 19.7824H48.0044C48.1002 19.7632 48.1769 19.8399 48.196 19.9166C48.196 19.9357 48.196 19.9549 48.196 19.9549V38.2016C48.196 38.5466 48.2152 38.9299 48.2344 39.3516C48.2727 39.7541 48.2919 40.1374 48.311 40.4632C48.311 40.5974 48.2535 40.7124 48.1194 40.7699C47.1227 41.1916 46.0685 41.4982 44.9952 41.6899C44.0177 41.8624 43.0402 41.9582 42.0435 41.9582ZM43.9219 38.1249V29.6916C43.7494 29.6532 43.5769 29.6149 43.4044 29.5957C43.1935 29.5766 42.9827 29.5574 42.7719 29.5574C42.0244 29.5574 41.2769 29.7107 40.606 30.0557C39.9544 30.3816 39.3985 30.8607 38.9769 31.4741C38.5552 32.0874 38.3444 32.9116 38.3444 33.9082C38.3252 34.5791 38.4402 35.2499 38.6702 35.8824C38.8619 36.3999 39.1494 36.8599 39.5327 37.2432C39.8969 37.5882 40.3377 37.8566 40.836 38.0099C41.3535 38.1824 41.8902 38.2591 42.4269 38.2591C42.7144 38.2591 42.9827 38.2399 43.2319 38.2207C43.481 38.2399 43.6919 38.2016 43.9219 38.1249Z" fill="#FF61F6"></path></g><defs><clipPath id="clip0_1288_15061"><rect width="64" height="64" fill="white"></rect></clipPath></defs></svg>