<svg xmlns="http://www.w3.org/2000/svg" width="64" height="64" viewBox="0 0 64 64" fill="none"><g clip-path="url(#clip0_1288_15069)"><g clip-path="url(#clip1_1288_15069)"><path d="M53.9999 32.0932C53.9999 30.5776 53.8533 29.0132 53.6088 27.5465H32.4399V36.1998H44.5644C44.0755 38.9865 42.4622 41.431 40.0666 42.9954L47.3022 48.6176C51.5555 44.6576 53.9999 38.8887 53.9999 32.0932Z" fill="#4280EF"></path><path d="M32.44 53.9955C38.5022 53.9955 43.5866 51.9911 47.3022 48.5688L40.0666 42.9955C38.0622 44.3644 35.4711 45.1466 32.44 45.1466C26.5733 45.1466 21.6355 41.1866 19.8266 35.9066L12.3955 41.6266C16.2088 49.2044 23.9333 53.9955 32.44 53.9955Z" fill="#34A353"></path><path d="M19.8267 35.8577C18.8978 33.071 18.8978 30.0399 19.8267 27.2533L12.3955 21.4844C9.21776 27.8399 9.21776 35.3199 12.3955 41.6266L19.8267 35.8577Z" fill="#F6B704"></path><path d="M32.44 18.0133C35.6177 17.9644 38.7466 19.1866 41.0444 21.3866L47.4488 14.9333C43.3911 11.1199 38.0133 9.06659 32.44 9.11548C23.9333 9.11548 16.2088 13.9066 12.3955 21.4844L19.8266 27.2533C21.6355 21.9244 26.5733 18.0133 32.44 18.0133Z" fill="#E54335"></path></g></g><defs><clipPath id="clip0_1288_15069"><rect width="64" height="64" fill="white"></rect></clipPath><clipPath id="clip1_1288_15069"><rect width="44" height="44.9778" fill="white" transform="translate(10 9.06665)"></rect></clipPath></defs></svg>