<svg xmlns="http://www.w3.org/2000/svg" width="64" height="64" viewBox="0 0 64 64" fill="none"><g clip-path="url(#clip0_1288_15064)"><g clip-path="url(#clip1_1288_15064)"><path d="M13.7073 39.5553L11.0918 40.5109L10.9526 48.291L20.0062 44.9837C16.8983 43.9429 14.6318 42.1085 13.7073 39.5553" fill="#FDBD39"></path><path d="M15.0764 31.3265L6 34.6421L11.0918 40.513L13.7073 39.5574C12.7849 37.0125 13.3542 34.1394 15.0764 31.3265Z" fill="#F69833"></path><path d="M30.3476 20.0979C18.7908 24.3192 11.339 33.032 13.7073 39.5552L55.5574 24.2673C53.1891 17.7441 41.9045 15.8765 30.3476 20.0979" fill="#FECF33"></path><path d="M38.9151 43.7268C50.472 39.5054 57.9362 30.8321 55.5555 24.2694L13.7053 39.5553C16.0861 46.12 27.3583 47.9482 38.9151 43.7268Z" fill="#EE6723"></path><path d="M55.5554 24.2673L13.7073 39.5553C14.5258 41.8155 17.6523 42.929 22.0358 42.929C26.3111 42.929 31.7831 41.8716 37.4878 39.7879C49.0447 35.5666 57.1737 28.7297 55.5554 24.2673" fill="#F69833"></path><path d="M47.2268 20.8956C42.9535 20.8956 37.4795 21.9531 31.7748 24.0367C20.218 28.2581 12.0889 35.0929 13.7072 39.5553L55.5574 24.2673C54.7368 22.0071 51.6123 20.8956 47.2268 20.8956" fill="#FDBD39"></path><path d="M44.9147 48.7043C43.6828 48.7043 41.8671 47.5929 39.5154 45.3991C36.7337 42.8044 33.549 39.0026 30.5429 34.6961C27.539 30.3895 25.071 26.0851 23.5918 22.5721C21.9818 18.7454 21.7512 16.3938 22.9083 15.5794C23.1763 15.3966 23.4942 15.3031 23.8183 15.3114C24.7593 15.3114 26.5958 16.0115 29.9883 19.3521L30.0631 19.4248L30.0527 19.5286C30.0298 19.7696 30.009 20.0106 29.9903 20.2495L29.953 20.7211L29.6206 20.3866C25.9643 16.7033 24.3563 16.3065 23.8328 16.3065C23.6832 16.3065 23.5648 16.3356 23.4796 16.3959C22.9769 16.749 22.9436 18.4775 24.5059 22.1857C25.958 25.6343 28.3907 29.8743 31.3552 34.1248C34.3218 38.3773 37.4588 42.1209 40.1927 44.6699C43.1385 47.4184 44.466 47.7154 44.9002 47.7154C45.0498 47.7154 45.1703 47.6843 45.2617 47.6199C45.7914 47.248 45.7914 45.397 44.0505 41.4042L43.9695 41.2213L44.144 41.1258C44.3185 41.0302 44.4889 40.9367 44.6467 40.8453L44.8566 40.7269L44.9542 40.9471C46.1882 43.7766 47.3433 47.3727 45.8288 48.4363C45.5608 48.6191 45.2409 48.7126 44.9147 48.7043ZM44.9147 48.268V48.4862V48.268Z" fill="#EE6723"></path><path d="M39.1956 43.6063L39.179 43.8223C38.8861 47.4371 38.1174 51.7831 36.1106 51.9597C36.0691 51.9639 36.0275 51.9639 35.988 51.9639C34.6252 51.9639 33.3351 50.0111 32.1572 46.1615C31.0396 42.5177 30.1733 37.6274 29.7183 32.3901C29.2613 27.1529 29.2675 22.1857 29.737 18.4027C30.248 14.281 31.2203 12.1288 32.6288 12.0042C32.6703 12 32.714 11.9979 32.7555 11.9979C33.7444 11.9979 35.2339 13.1177 36.7588 18.3321L35.7637 18.5232C35.2547 16.7823 34.7 15.3655 34.1495 14.3891C33.6405 13.4895 33.144 12.993 32.7555 12.993C32.7431 12.993 32.7306 12.993 32.7161 12.9951C32.1053 13.0491 31.2161 14.5283 30.7217 18.5253C30.2605 22.2397 30.2543 27.1342 30.7051 32.3029C31.1559 37.4737 32.0076 42.2913 33.1045 45.8686C33.5948 47.4703 34.1329 48.7916 34.6626 49.687C35.1487 50.5138 35.6203 50.9688 35.988 50.9688C36.0005 50.9688 36.013 50.9688 36.0254 50.9667C36.6092 50.9168 37.7102 49.3754 38.1735 43.9553L39.1956 43.6063Z" fill="#EE6723"></path></g></g><defs><clipPath id="clip0_1288_15064"><rect width="64" height="64" fill="white"></rect></clipPath><clipPath id="clip1_1288_15064"><rect width="50" height="39.9659" fill="white" transform="translate(6 12)"></rect></clipPath></defs></svg>