<svg xmlns="http://www.w3.org/2000/svg" width="64" height="64" viewBox="0 0 64 64" fill="none"><g clip-path="url(#clip0_1288_15065)"><g clip-path="url(#clip1_1288_15065)"><path d="M55.2521 30.2075L34.1339 9.08927L32.0872 7.04407L8.92386 30.2075C8.16666 30.9668 8.16666 32.1959 8.92386 32.9536L23.4474 47.4766L32.0872 56.1184L55.2521 32.9536C56.0101 32.1959 56.0101 30.9668 55.2521 30.2075ZM32.0872 38.8349L24.8334 31.5816L32.0872 24.3257L39.3426 31.5816L32.0872 38.8349Z" fill="#2684FF"></path><path d="M32.087 24.326C27.338 19.5749 27.3137 11.8801 32.0365 7.10107L16.1594 22.972L24.8012 31.6138L32.087 24.326Z" fill="url(#paint0_linear_1288_15065)"></path><path d="M39.3627 31.561L32.0872 38.835C34.3799 41.1257 35.6694 44.2348 35.6694 47.4768C35.6694 50.7185 34.3799 53.8259 32.0872 56.1187L48.0025 40.2029L39.3627 31.561Z" fill="url(#paint1_linear_1288_15065)"></path></g></g><defs><linearGradient id="paint0_linear_1288_15065" x1="28.969" y1="18.8109" x2="20.6612" y2="27.1166" gradientUnits="userSpaceOnUse"><stop stop-color="#0052CC"></stop><stop offset="1" stop-color="#2684FF"></stop></linearGradient><linearGradient id="paint1_linear_1288_15065" x1="35.2949" y1="44.2713" x2="43.5861" y2="35.9801" gradientUnits="userSpaceOnUse"><stop stop-color="#0052CC"></stop><stop offset="1" stop-color="#2684FF"></stop></linearGradient><clipPath id="clip0_1288_15065"><rect width="64" height="64" fill="white"></rect></clipPath><clipPath id="clip1_1288_15065"><rect width="48" height="49.1163" fill="white" transform="translate(8 7.02332)"></rect></clipPath></defs></svg>