<svg xmlns="http://www.w3.org/2000/svg" width="64" height="64" viewBox="0 0 64 64" fill="none"><g clip-path="url(#clip0_1288_15066)"><path fill-rule="evenodd" clip-rule="evenodd" d="M48.7187 9.18579H14.7157C11.7905 9.18579 9.41809 11.555 9.41411 14.4802V48.433C9.40845 49.8429 9.96449 51.1969 10.9593 52.1958C11.9542 53.1946 13.3059 53.7561 14.7157 53.7561H48.7187C50.1272 53.7542 51.4771 53.1919 52.4704 52.1932C53.4636 51.1946 54.0188 49.8417 54.0131 48.433V14.4802C54.0091 11.5578 51.641 9.18973 48.7187 9.18579ZM28.6484 41.2882C28.6466 41.7593 28.4571 42.2105 28.1219 42.5415C27.7866 42.8727 27.3333 43.0567 26.8622 43.053H19.4314C18.4595 43.0491 17.6737 42.26 17.6737 41.2882V19.1745C17.6737 18.2026 18.4595 17.4136 19.4314 17.4097H26.8622C27.8352 17.4136 28.6231 18.2014 28.627 19.1745L28.6484 41.2882ZM45.7963 31.1351C45.7963 31.6069 45.6075 32.0592 45.2719 32.3907C44.9363 32.7223 44.4819 32.9057 44.0101 32.9001H36.5793C35.6062 32.896 34.8184 32.1082 34.8145 31.1351V19.1745C34.8184 18.2014 35.6062 17.4136 36.5793 17.4097H44.0101C44.9819 17.4136 45.7678 18.2026 45.7678 19.1745L45.7963 31.1351Z" fill="url(#paint0_linear_1288_15066)"></path></g><defs><linearGradient id="paint0_linear_1288_15066" x1="31.735" y1="53.7561" x2="31.735" y2="9.18579" gradientUnits="userSpaceOnUse"><stop stop-color="#0052CC"></stop><stop offset="1" stop-color="#2684FF"></stop></linearGradient><clipPath id="clip0_1288_15066"><rect width="64" height="64" fill="white"></rect></clipPath></defs></svg>