<svg xmlns="http://www.w3.org/2000/svg" width="64" height="64" viewBox="0 0 64 64" fill="none"><g clip-path="url(#clip0_1288_15062)"><path d="M17.1458 9.94995H46.8542C51.3583 9.94995 55 13.5916 55 18.0958V46.6542C55 51.1583 51.3583 54.8 46.8542 54.8H17.1458C12.6417 54.8 9 51.1583 9 46.6542V18.0958C9 13.5916 12.6417 9.94995 17.1458 9.94995Z" fill="#330000"></path><path d="M31.2333 36.7833H24.1033L22.6466 41.2875C22.6083 41.46 22.4549 41.575 22.2824 41.5558H18.6791C18.4683 41.5558 18.4108 41.4408 18.4683 41.2108L24.6399 23.4433C24.6974 23.2516 24.7549 23.0408 24.8316 22.8108C24.9083 22.4083 24.9466 21.9866 24.9466 21.565C24.9274 21.4691 25.0041 21.3733 25.0999 21.3541H30.0641C30.2174 21.3541 30.2941 21.4116 30.3133 21.5075L37.3091 41.2492C37.3666 41.46 37.3091 41.5558 37.1174 41.5558H33.1116C32.9774 41.575 32.8433 41.4792 32.8049 41.345L31.2333 36.7833ZM25.2149 32.8925H30.0833C29.9683 32.49 29.8149 32.0108 29.6424 31.5125C29.4699 30.995 29.2974 30.4391 29.1249 29.8641C28.9333 29.27 28.7608 28.695 28.5691 28.1008C28.3774 27.5066 28.2049 26.9508 28.0516 26.395C27.8983 25.8583 27.7641 25.36 27.6299 24.9H27.5916C27.4191 25.7241 27.2083 26.5483 26.9399 27.3725C26.6524 28.2925 26.3649 29.2508 26.0583 30.2091C25.7899 31.1866 25.5024 32.0875 25.2149 32.8925ZM41.5833 24.7083C40.9508 24.7275 40.3374 24.4783 39.8774 24.0375C39.4366 23.5583 39.2066 22.9258 39.2258 22.2741C39.2066 21.6225 39.4558 21.0091 39.9158 20.5683C40.3758 20.1275 40.9891 19.8975 41.6216 19.8975C42.3691 19.8975 42.9441 20.1275 43.3658 20.5683C43.7874 21.0283 44.0174 21.6416 43.9983 22.2741C44.0174 22.9258 43.7874 23.5583 43.3274 24.0375C42.8866 24.4975 42.2349 24.7466 41.5833 24.7083ZM39.4366 41.345V26.5866C39.4366 26.395 39.5133 26.3183 39.6858 26.3183H43.4808C43.6533 26.3183 43.7299 26.4141 43.7299 26.5866V41.345C43.7299 41.5558 43.6533 41.6516 43.4808 41.6516H39.7241C39.5324 41.6516 39.4366 41.5367 39.4366 41.345Z" fill="#FF9A00"></path></g><defs><clipPath id="clip0_1288_15062"><rect width="64" height="64" fill="white"></rect></clipPath></defs></svg>