<svg xmlns="http://www.w3.org/2000/svg" width="64" height="64" viewBox="0 0 64 64" fill="none"><g clip-path="url(#clip0_1288_15060)"><g clip-path="url(#clip1_1288_15060)"><path d="M24.0067 55.9905C28.237 55.9905 31.6702 52.5573 31.6702 48.327V40.6636H24.0067C19.7765 40.6636 16.3433 44.0968 16.3433 48.327C16.3433 52.5573 19.7765 55.9905 24.0067 55.9905Z" fill="#0ACF83"></path><path d="M16.3433 33C16.3433 28.7698 19.7765 25.3365 24.0067 25.3365H31.6702V40.6635H24.0067C19.7765 40.6635 16.3433 37.2302 16.3433 33Z" fill="#A259FF"></path><path d="M16.3435 17.6731C16.3435 13.4429 19.7767 10.0096 24.007 10.0096H31.6704V25.3366H24.007C19.7767 25.3366 16.3435 21.9033 16.3435 17.6731Z" fill="#F24E1E"></path><path d="M31.6699 10.0096H39.3334C43.5636 10.0096 46.9969 13.4429 46.9969 17.6731C46.9969 21.9033 43.5636 25.3366 39.3334 25.3366H31.6699V10.0096Z" fill="#FF7262"></path><path d="M46.9969 33C46.9969 37.2302 43.5636 40.6635 39.3334 40.6635C35.1032 40.6635 31.6699 37.2302 31.6699 33C31.6699 28.7698 35.1032 25.3365 39.3334 25.3365C43.5636 25.3365 46.9969 28.7698 46.9969 33Z" fill="#1ABCFE"></path></g></g><defs><clipPath id="clip0_1288_15060"><rect width="64" height="64" fill="white"></rect></clipPath><clipPath id="clip1_1288_15060"><rect width="30.66" height="45.9808" fill="white" transform="translate(16.3401 10.0096)"></rect></clipPath></defs></svg>