<svg xmlns="http://www.w3.org/2000/svg" width="64" height="64" viewBox="0 0 64 64" fill="none"><g clip-path="url(#clip0_1288_15067)"><path fill-rule="evenodd" clip-rule="evenodd" d="M17.62 17.1863C19.0433 18.3427 19.5773 18.2545 22.2502 18.0761L47.4485 16.5631C47.9829 16.5631 47.5386 16.0299 47.3603 15.9413L43.1754 12.916C42.3735 12.2934 41.3052 11.5805 39.2577 11.7588L14.8581 13.5384C13.9683 13.6267 13.7905 14.0716 14.1449 14.4282L17.62 17.1863ZM19.1328 23.0587V49.5718C19.1328 50.9967 19.8449 51.5297 21.4475 51.4416L49.1405 49.8391C50.7439 49.751 50.9225 48.7709 50.9225 47.6134V21.2783C50.9225 20.1227 50.4779 19.4995 49.4964 19.5884L20.557 21.2783C19.489 21.3681 19.1327 21.9023 19.1327 23.0587H19.1328ZM46.4712 24.4809C46.6488 25.2825 46.4712 26.0833 45.6682 26.1734L44.3339 26.4393V46.0129C43.1754 46.6355 42.1071 46.9915 41.2169 46.9915C39.7917 46.9915 39.4347 46.5463 38.3671 45.2125L29.6392 31.5108V44.7676L32.4011 45.3908C32.4011 45.3908 32.4011 46.9915 30.1729 46.9915L24.0301 47.3478C23.8517 46.9915 24.0301 46.1025 24.6532 45.9245L26.2562 45.4802V27.9522L24.0306 27.7739C23.852 26.9723 24.2966 25.8166 25.5441 25.727L32.1339 25.2828L41.2169 39.1628V26.8841L38.9011 26.6183C38.7234 25.6385 39.4347 24.927 40.3253 24.8387L46.4712 24.4809ZM12.8095 11.1363L38.1889 9.26732C41.3056 9.00002 42.1075 9.17909 44.0664 10.602L52.1678 16.2961C53.5046 17.2753 53.9501 17.5419 53.9501 18.6093V49.8391C53.9501 51.7964 53.2371 52.9539 50.7443 53.131L21.2711 54.9108C19.3999 55 18.5093 54.7334 17.5293 53.487L11.5633 45.7464C10.4944 44.3215 10.0498 43.2555 10.0498 42.0084V14.2492C10.0498 12.6487 10.763 11.3135 12.8095 11.1363V11.1363Z" fill="black"></path></g><defs><clipPath id="clip0_1288_15067"><rect width="64" height="64" fill="white"></rect></clipPath></defs></svg>