<svg xmlns="http://www.w3.org/2000/svg" width="64" height="64" viewBox="0 0 64 64" fill="none"><g clip-path="url(#clip0_1288_15072)"><path d="M52.3239 9L48.6287 50.3952L32.0188 55L15.4547 50.4017L11.7634 9H52.3239Z" fill="#264DE4"></path><path d="M45.4653 47.7593L48.6231 12.3853H32.0437V51.4803L45.4653 47.7593Z" fill="#2965F1"></path><path d="M20.2258 27.7406L20.6809 32.8183H32.044V27.7406H20.2258Z" fill="#EBEBEB"></path><path d="M32.0436 17.4631H32.0261H19.311L19.7726 22.5409H32.0436V17.4631Z" fill="#EBEBEB"></path><path d="M32.0436 46.2109V40.9279L32.0214 40.9338L26.3662 39.4068L26.0047 35.3571H23.2568H20.9075L21.6189 43.3298L32.0202 46.2173L32.0436 46.2109Z" fill="#EBEBEB"></path><path d="M38.2788 32.8183L37.6894 39.4038L32.0261 40.9323V46.2151L42.4358 43.3301L42.5122 42.4722L43.7054 29.1041L43.8293 27.7406L44.746 17.4631H32.0261V22.5409H39.1812L38.7191 27.7406H32.0261V32.8183H38.2788Z" fill="white"></path></g><defs><clipPath id="clip0_1288_15072"><rect width="64" height="64" fill="white"></rect></clipPath></defs></svg>