<svg xmlns="http://www.w3.org/2000/svg" width="64" height="64" viewBox="0 0 64 64" fill="none"><g clip-path="url(#clip0_1288_15070)"><path d="M55 9H9V55H55V9Z" fill="#F7DF1E"></path><path d="M39.9003 44.9377C40.8268 46.4506 42.0323 47.5626 44.1644 47.5626C45.9555 47.5626 47.0996 46.6674 47.0996 45.4305C47.0996 43.9483 45.9241 43.4233 43.9526 42.561L42.872 42.0974C39.7528 40.7685 37.6806 39.1037 37.6806 35.5844C37.6806 32.3424 40.1507 29.8745 44.0111 29.8745C46.7594 29.8745 48.7352 30.831 50.159 33.3355L46.793 35.4967C46.0518 34.1678 45.2523 33.6443 44.0111 33.6443C42.745 33.6443 41.9425 34.4475 41.9425 35.4967C41.9425 36.7935 42.7457 37.3185 44.6003 38.1217L45.6809 38.5846C49.3536 40.1595 51.4273 41.7651 51.4273 45.375C51.4273 49.2668 48.3701 51.3989 44.2644 51.3989C40.25 51.3989 37.6565 49.4858 36.3875 46.9785L39.9003 44.9377ZM24.6305 45.3123C25.3095 46.517 25.9272 47.5356 27.4124 47.5356C28.8325 47.5356 29.7284 46.9799 29.7284 44.8194V30.1213H34.051V44.8778C34.051 49.3537 31.4268 51.3908 27.5964 51.3908C24.1354 51.3908 22.1311 49.5997 21.1118 47.4425L24.6305 45.3123Z" fill="black"></path></g><defs><clipPath id="clip0_1288_15070"><rect width="64" height="64" fill="white"></rect></clipPath></defs></svg>