<svg xmlns="http://www.w3.org/2000/svg" width="24" height="24" viewBox="0 0 24 24" fill="none"><path fill-rule="evenodd" clip-rule="evenodd" d="M3 5.25C3 4.008 4.008 3 5.25 3C6.492 3 7.5 4.008 7.5 5.25C7.5 6.492 6.492 7.5 5.25 7.5C4.008 7.5 3 6.492 3 5.25ZM15.1504 8.4004C11.9194 8.4004 9.2994 11.0044 9.2994 14.2144V20.0994C9.2994 20.5964 9.7034 21.0004 10.2004 21.0004H12.2994C12.7964 21.0004 13.2004 20.5964 13.2004 20.0994V14.2144C13.2004 13.0784 14.1844 12.1704 15.3524 12.2874C16.3664 12.3884 17.0994 13.3154 17.0994 14.3344V20.0994C17.0994 20.5964 17.5034 21.0004 18.0004 21.0004H20.0994C20.5964 21.0004 21.0004 20.5964 21.0004 20.0994V14.2144C21.0004 11.0044 18.3804 8.4004 15.1504 8.4004ZM6.5996 9.2998H3.9006C3.4036 9.2998 2.9996 9.7028 2.9996 10.1998V20.0998C2.9996 20.5968 3.4036 20.9998 3.9006 20.9998H6.5996C7.0966 20.9998 7.4996 20.5968 7.4996 20.0998V10.1998C7.4996 9.7028 7.0966 9.2998 6.5996 9.2998Z" fill="#1F1F1F"></path><mask id="mask0_1212_13864" style="mask-type:alpha" maskUnits="userSpaceOnUse" x="2" y="3" width="20" height="19"><path fill-rule="evenodd" clip-rule="evenodd" d="M3 5.25C3 4.008 4.008 3 5.25 3C6.492 3 7.5 4.008 7.5 5.25C7.5 6.492 6.492 7.5 5.25 7.5C4.008 7.5 3 6.492 3 5.25ZM15.1504 8.4004C11.9194 8.4004 9.2994 11.0044 9.2994 14.2144V20.0994C9.2994 20.5964 9.7034 21.0004 10.2004 21.0004H12.2994C12.7964 21.0004 13.2004 20.5964 13.2004 20.0994V14.2144C13.2004 13.0784 14.1844 12.1704 15.3524 12.2874C16.3664 12.3884 17.0994 13.3154 17.0994 14.3344V20.0994C17.0994 20.5964 17.5034 21.0004 18.0004 21.0004H20.0994C20.5964 21.0004 21.0004 20.5964 21.0004 20.0994V14.2144C21.0004 11.0044 18.3804 8.4004 15.1504 8.4004ZM6.5996 9.2998H3.9006C3.4036 9.2998 2.9996 9.7028 2.9996 10.1998V20.0998C2.9996 20.5968 3.4036 20.9998 3.9006 20.9998H6.5996C7.0966 20.9998 7.4996 20.5968 7.4996 20.0998V10.1998C7.4996 9.7028 7.0966 9.2998 6.5996 9.2998Z" fill="white"></path></mask><g mask="url(#mask0_1212_13864)"><rect width="24" height="24" fill="#1F1F1F"></rect></g></svg>