<svg xmlns="http://www.w3.org/2000/svg" width="91" height="32" viewBox="0 0 91 32" fill="none"><g clip-path="url(#clip0_1230_14217)"><path d="M8.60227 25.3169H0V1.55475H8.59091C10.9621 1.55475 13.0038 2.03046 14.7159 2.98187C16.4356 3.92555 17.7614 5.28692 18.6932 7.06599C19.625 8.83732 20.0909 10.9567 20.0909 13.4242C20.0909 15.8994 19.625 18.0266 18.6932 19.8057C17.7689 21.5847 16.447 22.95 14.7273 23.9014C13.0076 24.8451 10.9659 25.3169 8.60227 25.3169ZM5.625 20.4206H8.38636C9.68939 20.4206 10.7917 20.1963 11.6932 19.7476C12.6023 19.2913 13.2879 18.5526 13.75 17.5315C14.2197 16.5028 14.4545 15.1337 14.4545 13.4242C14.4545 11.7148 14.2197 10.3534 13.75 9.3401C13.2803 8.31907 12.5871 7.58424 11.6705 7.13561C10.7614 6.67924 9.64015 6.45105 8.30682 6.45105H5.625V20.4206Z" fill="url(#paint0_linear_1230_14217)"></path><path d="M23.375 25.3169V7.49529H28.9318V25.3169H23.375ZM26.1591 5.41842C25.3788 5.41842 24.7083 5.15543 24.1477 4.62944C23.5871 4.09572 23.3068 3.45371 23.3068 2.70341C23.3068 1.96084 23.5871 1.32657 24.1477 0.800581C24.7083 0.26686 25.3788 0 26.1591 0C26.947 0 27.6174 0.26686 28.1705 0.800581C28.7311 1.32657 29.0114 1.96084 29.0114 2.70341C29.0114 3.45371 28.7311 4.09572 28.1705 4.62944C27.6174 5.15543 26.947 5.41842 26.1591 5.41842Z" fill="url(#paint1_linear_1230_14217)"></path><path d="M32.4688 32V7.49529H37.9688V10.5468H38.1392C38.3665 10.0053 38.6884 9.4832 39.1051 8.98042C39.5294 8.47764 40.0672 8.06768 40.7188 7.75054C41.3778 7.42567 42.1657 7.26323 43.0824 7.26323C44.2945 7.26323 45.4271 7.58811 46.4801 8.23785C47.5407 8.8876 48.3968 9.88929 49.0483 11.2429C49.6998 12.5966 50.0256 14.3215 50.0256 16.4177C50.0256 18.4365 49.7112 20.1267 49.0824 21.488C48.4612 22.8494 47.6203 23.8704 46.5597 24.5511C45.5066 25.2318 44.3362 25.5722 43.0483 25.5722C42.1695 25.5722 41.4081 25.4252 40.7642 25.1313C40.1203 24.8373 39.5786 24.4506 39.1392 23.971C38.7074 23.4914 38.3741 22.977 38.1392 22.4278H38.0256V32H32.4688ZM37.9119 16.4061C37.9119 17.3652 38.0369 18.2006 38.2869 18.9123C38.5445 19.6239 38.9119 20.1769 39.3892 20.5714C39.8741 20.9582 40.4536 21.1516 41.1278 21.1516C41.8097 21.1516 42.3892 20.9582 42.8665 20.5714C43.3438 20.1769 43.7036 19.6239 43.946 18.9123C44.196 18.2006 44.321 17.3652 44.321 16.4061C44.321 15.4469 44.196 14.6154 43.946 13.9115C43.7036 13.2076 43.3438 12.6623 42.8665 12.2756C42.3968 11.8888 41.8172 11.6954 41.1278 11.6954C40.446 11.6954 39.8665 11.8849 39.3892 12.264C38.9119 12.643 38.5445 13.1844 38.2869 13.8883C38.0369 14.5922 37.9119 15.4315 37.9119 16.4061Z" fill="url(#paint2_linear_1230_14217)"></path><path d="M62.7898 7.49529V11.6722H51.7784V7.49529H62.7898ZM54.0852 3.22553H59.642V19.7128C59.642 20.0609 59.6951 20.3432 59.8011 20.5598C59.9148 20.7687 60.0777 20.9195 60.2898 21.0123C60.5019 21.0974 60.7557 21.14 61.0511 21.14C61.2633 21.14 61.4867 21.1206 61.7216 21.0819C61.964 21.0355 62.1458 20.9969 62.267 20.9659L63.108 25.0616C62.8428 25.139 62.4678 25.2357 61.983 25.3517C61.5057 25.4677 60.9337 25.5412 60.267 25.5722C58.964 25.634 57.8466 25.4793 56.9148 25.108C55.9905 24.729 55.2822 24.1412 54.7898 23.3445C54.3049 22.5477 54.0701 21.546 54.0852 20.3394V3.22553Z" fill="url(#paint3_linear_1230_14217)"></path><path d="M70.5455 25.6186C69.4318 25.6186 68.4432 25.4291 67.5795 25.05C66.7235 24.6633 66.0455 24.0831 65.5455 23.3096C65.053 22.5284 64.8068 21.5499 64.8068 20.3742C64.8068 19.3841 64.9773 18.5487 65.3182 17.868C65.6591 17.1873 66.1288 16.6343 66.7273 16.2088C67.3258 15.7834 68.0152 15.4624 68.7955 15.2458C69.5758 15.0215 70.4091 14.8707 71.2955 14.7933C72.2879 14.7005 73.0871 14.6038 73.6932 14.5033C74.2992 14.395 74.7386 14.2441 75.0114 14.0508C75.2917 13.8496 75.4318 13.5673 75.4318 13.2038V13.1458C75.4318 12.5502 75.2311 12.0899 74.8295 11.765C74.428 11.4402 73.8864 11.2777 73.2045 11.2777C72.4697 11.2777 71.8788 11.4402 71.4318 11.765C70.9848 12.0899 70.7008 12.5386 70.5795 13.1109L65.4545 12.9253C65.6061 11.8424 65.9962 10.8755 66.625 10.0247C67.2614 9.16606 68.1326 8.49311 69.2386 8.0058C70.3523 7.51076 71.6894 7.26323 73.25 7.26323C74.3636 7.26323 75.3902 7.3986 76.3295 7.66932C77.2689 7.93232 78.0871 8.31907 78.7841 8.82959C79.4811 9.33237 80.0189 9.95117 80.3977 10.686C80.7841 11.4208 80.9773 12.2601 80.9773 13.2038V25.3169H75.75V22.8339H75.6136C75.303 23.4373 74.9053 23.9478 74.4205 24.3655C73.9432 24.7832 73.3788 25.0964 72.7273 25.3053C72.0833 25.5141 71.3561 25.6186 70.5455 25.6186ZM72.2614 21.9057C72.8599 21.9057 73.3977 21.782 73.875 21.5344C74.3598 21.2869 74.7462 20.9466 75.0341 20.5134C75.322 20.0725 75.4659 19.562 75.4659 18.9819V17.2879C75.3068 17.373 75.1136 17.4503 74.8864 17.5199C74.6667 17.5896 74.4242 17.6553 74.1591 17.7172C73.8939 17.7791 73.6212 17.8332 73.3409 17.8796C73.0606 17.926 72.7917 17.9686 72.5341 18.0072C72.0114 18.0923 71.5644 18.2238 71.1932 18.4017C70.8295 18.5796 70.5492 18.8117 70.3523 19.0979C70.1629 19.3764 70.0682 19.709 70.0682 20.0957C70.0682 20.6836 70.2727 21.1322 70.6818 21.4416C71.0985 21.751 71.625 21.9057 72.2614 21.9057Z" fill="url(#paint4_linear_1230_14217)"></path><path d="M87.5 25.6534C86.6818 25.6534 85.9811 25.3594 85.3977 24.7716C84.822 24.1837 84.5379 23.4721 84.5455 22.6367C84.5379 21.8168 84.822 21.1168 85.3977 20.5366C85.9811 19.9488 86.6818 19.6548 87.5 19.6548C88.2727 19.6548 88.9545 19.9488 89.5455 20.5366C90.1439 21.1168 90.447 21.8168 90.4545 22.6367C90.447 23.1936 90.303 23.7003 90.0227 24.1566C89.75 24.613 89.3902 24.9766 88.9432 25.2473C88.5038 25.518 88.0227 25.6534 87.5 25.6534Z" fill="url(#paint5_linear_1230_14217)"></path></g><defs><linearGradient id="paint0_linear_1230_14217" x1="5.58972" y1="4.89625" x2="87.511" y2="34.3257" gradientUnits="userSpaceOnUse"><stop stop-color="#F18D5F"></stop><stop offset="0.774022" stop-color="#F1B33D"></stop></linearGradient><linearGradient id="paint1_linear_1230_14217" x1="5.58972" y1="4.89625" x2="87.511" y2="34.3257" gradientUnits="userSpaceOnUse"><stop stop-color="#F18D5F"></stop><stop offset="0.774022" stop-color="#F1B33D"></stop></linearGradient><linearGradient id="paint2_linear_1230_14217" x1="5.58972" y1="4.89625" x2="87.511" y2="34.3257" gradientUnits="userSpaceOnUse"><stop stop-color="#F18D5F"></stop><stop offset="0.774022" stop-color="#F1B33D"></stop></linearGradient><linearGradient id="paint3_linear_1230_14217" x1="5.58972" y1="4.89625" x2="87.511" y2="34.3257" gradientUnits="userSpaceOnUse"><stop stop-color="#F18D5F"></stop><stop offset="0.774022" stop-color="#F1B33D"></stop></linearGradient><linearGradient id="paint4_linear_1230_14217" x1="5.58972" y1="4.89625" x2="87.511" y2="34.3257" gradientUnits="userSpaceOnUse"><stop stop-color="#F18D5F"></stop><stop offset="0.774022" stop-color="#F1B33D"></stop></linearGradient><linearGradient id="paint5_linear_1230_14217" x1="5.58972" y1="4.89625" x2="87.511" y2="34.3257" gradientUnits="userSpaceOnUse"><stop stop-color="#F18D5F"></stop><stop offset="0.774022" stop-color="#F1B33D"></stop></linearGradient><clipPath id="clip0_1230_14217"><rect width="90.4545" height="32" fill="white"></rect></clipPath></defs></svg>