<svg xmlns="http://www.w3.org/2000/svg" width="32" height="32" viewBox="0 0 32 32" fill="none"><g clip-path="url(#clip0_1230_14226)"><path d="M10.2008 29.5974H2.79711C1.25231 29.5974 0 28.3451 0 26.8003V4.7971C0 3.25231 1.25231 2 2.7971 2H10.1873C12.9992 2 15.4202 2.55249 17.4505 3.65746C19.4897 4.75345 21.0619 6.33455 22.1668 8.40076C23.2718 10.458 23.8243 12.9195 23.8243 15.7852C23.8243 18.6599 23.2718 21.1304 22.1668 23.1966C21.0708 25.2628 19.5032 26.8484 17.464 27.9534C15.4247 29.0494 13.0036 29.5974 10.2008 29.5974ZM6.67026 23.9108H9.94476C11.4899 23.9108 12.797 23.6503 13.8661 23.1292C14.9441 22.5992 15.7571 21.7413 16.3051 20.5555C16.8621 19.3606 17.1406 17.7706 17.1406 15.7852C17.1406 13.7998 16.8621 12.2187 16.3051 11.0419C15.7481 9.85608 14.9261 9.00265 13.8391 8.48161C12.7611 7.95158 11.4315 7.68656 9.85043 7.68656H6.67026V23.9108Z" fill="url(#paint0_linear_1230_14226)"></path><path d="M28.4968 29.9881C27.5266 29.9881 26.6957 29.6468 26.0039 28.964C25.3212 28.2813 24.9843 27.4548 24.9933 26.4846C24.9843 25.5323 25.3212 24.7193 26.0039 24.0455C26.6957 23.3628 27.5266 23.0214 28.4968 23.0214C29.4132 23.0214 30.2217 23.3628 30.9224 24.0455C31.6321 24.7193 31.9914 25.5323 32.0004 26.4846C31.9914 27.1314 31.8207 27.7198 31.4884 28.2498C31.165 28.7799 30.7382 29.2021 30.2082 29.5165C29.6872 29.8309 29.1167 29.9881 28.4968 29.9881Z" fill="url(#paint1_linear_1230_14226)"></path></g><defs><linearGradient id="paint0_linear_1230_14226" x1="0.847527" y1="5.88085" x2="37.2373" y2="10.3769" gradientUnits="userSpaceOnUse"><stop stop-color="#F18D5F"></stop><stop offset="0.774022" stop-color="#F1B33D"></stop></linearGradient><linearGradient id="paint1_linear_1230_14226" x1="0.847527" y1="5.88085" x2="37.2373" y2="10.3769" gradientUnits="userSpaceOnUse"><stop stop-color="#F18D5F"></stop><stop offset="0.774022" stop-color="#F1B33D"></stop></linearGradient><clipPath id="clip0_1230_14226"><rect width="32" height="32" fill="white"></rect></clipPath></defs></svg>